<svg width="1350" height="1080" viewBox="0 0 1350 1080" fill="none" xmlns="http://www.w3.org/2000/svg">
<g clip-path="url(#clip0_1429_2143)">
<g clip-path="url(#clip1_1429_2143)">
<rect opacity="0.9" x="-188.945" y="1060.86" width="61.7228" height="2035.46" transform="rotate(-120 -188.945 1060.86)" fill="#FFCC23"></rect>
<path d="M892.661 210.988C884.069 196.106 864.935 191.066 849.926 199.732L781.981 238.96C772.29 244.555 766.688 254.495 766.246 264.842C745.252 249.453 716.168 247.017 692.012 260.963L633.127 294.96C600.606 313.736 589.334 355.097 607.95 387.342C615.446 400.325 626.643 409.85 639.469 415.372L571.862 410.552C579.999 391.65 579.453 369.366 568.432 350.277C549.815 318.032 508.36 307.113 475.838 325.889L403.364 367.732C370.843 386.509 359.571 427.869 378.187 460.114C379.951 463.169 381.919 466.032 384.066 468.697L329.017 500.479C314.008 509.145 308.805 528.234 317.397 543.117L480.753 826.058C489.346 840.94 508.479 845.979 523.489 837.313L578.537 805.531C579.772 808.723 581.267 811.859 583.031 814.913C601.647 847.158 643.103 858.077 675.624 839.301L748.098 797.458C780.62 778.681 791.892 737.321 773.275 705.076C762.188 685.873 743.002 674.233 722.425 671.925L752.577 609.769C750.635 624.013 753.216 638.949 760.935 652.319C779.551 684.564 821.007 695.482 853.528 676.706L912.414 642.709C936.569 628.762 949.002 602.357 946.171 576.481C955.353 581.272 966.762 581.39 976.453 575.795L1044.4 536.567C1059.41 527.901 1064.61 508.811 1056.02 493.929L892.661 210.988Z" fill="url(#paint0_linear_1429_2143)"></path>
<path fill-rule="evenodd" clip-rule="evenodd" d="M446.549 489.253L536.93 437.072L678.708 447.7L812.083 370.695C843.721 352.428 884.177 363.268 902.442 394.906C920.708 426.544 909.868 466.999 878.23 485.265L744.856 562.27L683.17 690.368L592.79 742.549L526.642 627.979L586.189 593.598C596.2 605.357 613.48 608.67 627.333 600.672L722.13 545.941C741.569 534.718 748.229 509.861 737.006 490.422C725.783 470.983 700.925 464.322 681.485 475.545L586.69 530.275C572.836 538.274 567.066 554.894 572.243 569.443L512.696 603.824L446.549 489.253ZM902.614 200.592C892.127 182.429 868.903 176.206 850.74 186.692L781.377 226.739C772.689 231.755 766.736 239.686 764.034 248.574C741.614 235.992 713.313 235.208 689.417 249.004L629.302 283.711C593.264 304.519 580.915 350.603 601.722 386.641C605.772 393.656 610.783 399.776 616.492 404.928L578.276 402.051C584.117 382.809 582.29 361.273 571.435 342.473C550.627 306.434 504.544 294.086 468.504 314.893L394.517 357.609C358.477 378.417 346.129 424.501 366.937 460.54C367.732 461.92 368.566 463.264 369.435 464.574L318.959 493.717C300.796 504.203 294.573 527.426 305.059 545.59L473.256 836.913C483.742 855.076 506.966 861.299 525.128 850.812L575.605 821.67C576.305 823.077 577.052 824.472 577.849 825.851C598.657 861.891 644.74 874.239 680.78 853.431L754.766 810.714C790.806 789.906 803.154 743.823 782.346 707.783C771.425 688.868 753.537 676.48 733.811 671.986L750.656 636.905C752.24 644.642 755.076 652.258 759.24 659.47C780.046 695.508 826.131 707.856 862.17 687.05L922.284 652.342C946.18 638.547 959.652 613.644 959.966 587.937C969.013 590.04 978.859 588.851 987.547 583.835L1056.91 543.788C1075.07 533.302 1081.3 510.078 1070.81 491.916L902.614 200.592ZM867.356 215.471C869.624 214.162 872.525 214.939 873.835 217.207L1042.03 508.531C1043.34 510.799 1042.56 513.699 1040.29 515.009L970.932 555.056C968.664 556.366 965.763 555.589 964.454 553.321L920.914 477.908C938.267 450.608 939.063 413.231 921.973 383.63C904.884 354.03 872.115 336.031 839.797 337.408L796.258 261.997C794.948 259.728 795.725 256.828 797.994 255.518L867.356 215.471ZM706.034 277.784C726.179 266.152 751.938 273.055 763.57 293.201C775.2 313.345 768.298 339.105 748.153 350.736L688.038 385.444C667.894 397.074 642.134 390.172 630.502 370.027C618.871 349.881 625.773 324.122 645.919 312.49L706.034 277.784ZM803.436 585.317L863.551 550.611C883.695 538.979 909.455 545.881 921.086 566.027C932.718 586.172 925.816 611.932 905.67 623.563L845.555 658.271C825.41 669.901 799.65 662.999 788.019 642.854C776.388 622.708 783.29 596.948 803.436 585.317ZM409.562 479.779C411.83 478.469 414.731 479.246 416.04 481.515L584.236 772.838C585.546 775.107 584.769 778.007 582.5 779.317L508.514 822.033C506.245 823.343 503.345 822.566 502.035 820.297L333.839 528.975C332.529 526.706 333.307 523.806 335.575 522.496L409.562 479.779ZM696.033 708.983C716.177 697.351 741.937 704.253 753.568 724.399C765.2 744.545 758.297 770.305 738.152 781.935L664.165 824.652C644.019 836.282 618.26 829.38 606.628 809.235C594.998 789.09 601.9 763.33 622.045 751.698L696.033 708.983ZM485.12 343.673C505.266 332.041 531.025 338.944 542.657 359.09C554.287 379.234 547.385 404.994 527.24 416.625L453.252 459.341C433.107 470.972 407.347 464.07 395.716 443.924C384.085 423.779 390.988 398.02 411.133 386.388L485.12 343.673Z" fill="black"></path>
<rect x="745.147" y="239.413" width="106.859" height="178.098" rx="53.4293" transform="rotate(60 745.147 239.413)" fill="url(#paint1_linear_1429_2143)"></rect>
<rect x="905.422" y="517.085" width="106.859" height="178.098" rx="53.4293" transform="rotate(60 905.422 517.085)" fill="url(#paint2_linear_1429_2143)"></rect>
<rect x="733.779" y="671.078" width="106.859" height="189.971" rx="53.4293" transform="rotate(60 733.779 671.078)" fill="url(#paint3_linear_1429_2143)"></rect>
<rect x="526.006" y="311.181" width="106.859" height="189.971" rx="53.4293" transform="rotate(60 526.006 311.181)" fill="url(#paint4_linear_1429_2143)"></rect>
<rect x="413.334" y="472.194" width="356.195" height="106.859" transform="rotate(60 413.334 472.194)" fill="#FFCC23"></rect>
<path d="M876.84 204.593L1054.94 513.067L962.395 566.497L907.745 471.839L920.165 437.654L914.564 390.076L876.718 362.401L840.345 355.1L784.298 258.022L876.84 204.593Z" fill="#FFCC23"></path>
<path d="M434.794 488.909L540.267 428.013L666.904 442.373L855.633 343.701L907.385 391.005L925.927 458.769L745.165 577.925L696.789 699.117L591.316 760.013L434.794 488.909Z" fill="#FFCC23"></path>
<path fill-rule="evenodd" clip-rule="evenodd" d="M446.565 489.26L536.945 437.079L678.724 447.706L812.099 370.701C843.737 352.435 884.192 363.275 902.457 394.913C920.724 426.551 909.884 467.005 878.246 485.272L744.871 562.277L683.186 690.375L592.805 742.556L526.658 627.985L586.205 593.605C596.216 605.364 613.496 608.676 627.348 600.679L722.145 545.948C741.584 534.725 748.245 509.868 737.022 490.428C725.798 470.989 700.94 464.328 681.501 475.552L586.706 530.282C572.852 538.28 567.082 554.901 572.259 569.45L512.712 603.83L446.565 489.26ZM902.629 200.598C892.142 182.435 868.918 176.213 850.756 186.699L781.392 226.745C772.705 231.762 766.752 239.693 764.05 248.581C741.63 235.999 713.329 235.215 689.433 249.011L629.318 283.717C593.279 304.525 580.931 350.61 601.738 386.648C605.788 393.663 610.798 399.782 616.508 404.934L578.292 402.057C584.132 382.816 582.305 361.28 571.45 342.48C550.643 306.44 504.559 294.092 468.519 314.9L394.532 357.616C358.493 378.423 346.144 424.508 366.952 460.546C367.748 461.926 368.582 463.271 369.451 464.58L318.974 493.723C300.812 504.209 294.589 527.433 305.075 545.597L473.272 836.919C483.757 855.083 506.981 861.306 525.144 850.819L575.621 821.677C576.32 823.084 577.068 824.479 577.865 825.858C598.672 861.898 644.755 874.246 680.795 853.438L754.782 810.721C790.822 789.913 803.17 743.83 782.362 707.79C771.441 688.874 753.553 676.487 733.826 671.993L750.672 636.912C752.255 644.649 755.092 652.265 759.255 659.476C780.062 695.515 826.146 707.863 862.186 687.056L922.3 652.349C946.196 638.553 959.667 613.65 959.982 587.944C969.029 590.047 978.874 588.857 987.563 583.842L1056.93 543.795C1075.09 533.309 1081.31 510.085 1070.83 491.923L902.629 200.598ZM867.372 215.478C869.64 214.168 872.54 214.946 873.85 217.214L1042.05 508.537C1043.36 510.806 1042.58 513.706 1040.31 515.016L970.948 555.063C968.679 556.373 965.779 555.596 964.469 553.327L920.93 477.914C938.282 450.615 939.078 413.238 921.988 383.637C904.899 354.036 872.131 336.038 839.812 337.415L796.274 262.003C794.964 259.735 795.741 256.834 798.009 255.525L867.372 215.478ZM706.05 277.791C726.194 266.159 751.954 273.061 763.585 293.207C775.216 313.352 768.313 339.111 748.169 350.743L688.054 385.45C667.909 397.081 642.15 390.179 630.518 370.034C618.887 349.888 625.789 324.128 645.935 312.497L706.05 277.791ZM803.452 585.324L863.566 550.617C883.711 538.986 909.471 545.888 921.102 566.034C932.734 586.179 925.831 611.938 905.685 623.57L845.57 658.277C825.426 669.908 799.666 663.005 788.035 642.86C776.403 622.715 783.306 596.955 803.452 585.324ZM409.578 479.786C411.846 478.476 414.747 479.253 416.056 481.521L584.252 772.845C585.561 775.114 584.784 778.014 582.516 779.324L508.529 822.04C506.261 823.349 503.361 822.572 502.051 820.304L333.855 528.981C332.545 526.713 333.322 523.812 335.591 522.503L409.578 479.786ZM696.048 708.989C716.193 697.358 741.953 704.26 753.584 724.406C765.215 744.552 758.313 770.312 738.167 781.942L664.181 824.659C644.035 836.289 618.275 829.387 606.644 809.242C595.014 789.096 601.916 763.337 622.061 751.705L696.048 708.989ZM485.135 343.679C505.281 332.048 531.041 338.95 542.672 359.096C554.303 379.241 547.4 405 527.256 416.632L453.268 459.347C433.122 470.979 407.363 464.077 395.732 443.931C384.101 423.786 391.003 398.026 411.149 386.395L485.135 343.679Z" fill="black" stroke="#232322" stroke-width="2.71357"></path>
</g>
</g>
<defs>
<linearGradient id="paint0_linear_1429_2143" x1="965.439" y1="348.846" x2="379.529" y2="663.377" gradientUnits="userSpaceOnUse">
<stop stop-color="white"></stop>
<stop offset="1" stop-color="#E6E6E6"></stop>
</linearGradient>
<linearGradient id="paint1_linear_1429_2143" x1="798.576" y1="417.511" x2="798.576" y2="239.413" gradientUnits="userSpaceOnUse">
<stop stop-color="#39444E"></stop>
<stop offset="1" stop-color="#46545F"></stop>
</linearGradient>
<linearGradient id="paint2_linear_1429_2143" x1="958.851" y1="695.183" x2="958.851" y2="517.085" gradientUnits="userSpaceOnUse">
<stop stop-color="#39444E"></stop>
<stop offset="1" stop-color="#46545F"></stop>
</linearGradient>
<linearGradient id="paint3_linear_1429_2143" x1="787.209" y1="861.048" x2="787.209" y2="671.078" gradientUnits="userSpaceOnUse">
<stop stop-color="#39444E"></stop>
<stop offset="1" stop-color="#46545F"></stop>
</linearGradient>
<linearGradient id="paint4_linear_1429_2143" x1="579.435" y1="501.152" x2="579.435" y2="311.181" gradientUnits="userSpaceOnUse">
<stop stop-color="#39444E"></stop>
<stop offset="1" stop-color="#46545F"></stop>
</linearGradient>
<clipPath id="clip0_1429_2143">
<rect width="1080" height="1350" fill="white" transform="translate(1350 5.90104e-05) rotate(90)"></rect>
</clipPath>
<clipPath id="clip1_1429_2143">
<path d="M-60 32.563C-60 14.579 -45.4211 5.90104e-05 -27.4371 5.90104e-05H1378.19C1396.17 5.90104e-05 1410.75 14.5789 1410.75 32.5629V1080H-60V32.563Z" fill="white"></path>
</clipPath>
</defs>
</svg>